<svg xmlns="http://www.w3.org/2000/svg" width="40" height="40" viewBox="0 0 721 830">
<path style="fill:#9eccf7; stroke:none;" d="M272 54L270.5 54.0278L268.944 54.3055L268 54.6111L266 55.4722L265 55.9445L264 56.3889L262 57.4166L261 58.0278L259 59.3333L258 59.9722L257 60.6111L255 61.75L254 62.2222L253 62.7778L252 63.2222L251 63.7778L250 64.2222L249 64.7778L247 65.7778L246 66.2222L244.083 67.25L243.222 67.8333L242.389 68.3889L240.778 69.6111L238.972 70.7222L238 71.1667L236 72.0555L234 73.0833L233 73.6945L231 74.9167L230 75.4722L228 76.5278L227 77.0555L226 77.6111L224 78.5834L223 79L221.028 79.8333L220.083 80.2778L219.222 80.8333L218.389 81.3889L217.611 82L215.917 83.1111L214 84L212 84.8889L211 85.4166L209 86.6111L208 87.1667L207 87.75L206 88.2222L204 89.2222L203 89.7778L202 90.2222L201 90.7778L200 91.2222L199 91.7778L198 92.2222L196 93.25L195 93.8333L193 94.9445L191 95.9445L189 96.8889L188 97.4166L186 98.6667L184 99.9167L182 101L181 101.528L180 102.056L178 103.167L177 103.75L176 104.222L174 105.25L172 106.389L170 107.583L168 108.611L167 109.056L165 110.083L164 110.694L162 112L160 113.306L158 114.389L157 114.806L155 115.611L153 116.611L152 117.083L151.056 117.5L149.5 117.917L148 118L147.75 119.444L147.417 120.556L147 122L145.5 122L143.944 122.111L143 122.306L141 123.083L139 124.194L138 124.806L137 125.389L135 126.611L134 127.167L133 127.75L131 128.778L130 129.222L129 129.778L127 130.778L126 131.222L124.083 132.25L122.389 133.389L121.611 134L120.778 134.611L118.972 135.806L118 136.361L117 136.944L115 137.944L114 138.361L113 138.806L111 139.611L110 140L108 140.889L107 141.417L105 142.611L104 143.167L103 143.75L102 144.222L100.111 145.25L99.3333 145.806L98.3611 146.778L98 148L96.5 148.028L94.9444 148.25L94 148.5L92 149.472L91 150.167L89 151.528L88 152.083L87 152.583L85 153.417L84 153.889L82 155L81 155.611L79 156.75L78 157.25L76 158.361L75 158.944L73 159.944L72 160.389L70 161.417L69 162L68 162.611L67 163.194L65 164.444L64 165.139L62 166.333L61 166.778L60 167.194L58 168.083L56 169.167L55 169.75L53 170.778L52 171.222L51 171.778L50 172.222L48 173.25L47 173.833L46 174.389L44 175.583L42.0833 176.611L41.2222 177.056L39.6111 178L37.9167 178.944L36.9722 179.389L35 180.417L33 181.611L31 182.75L30 183.222L29 183.75L28 184.167L27 184.639L26 185.056L24 186.056L23 186.639L21 187.806L20 188.389L18 189.667L17 190.333L15 191.611L13 192.833L12 193.472L10.0278 195.083L8.33333 197L7.30556 199L7.02778 200L6.61111 202L6.38889 203L6.08333 205L6 207L6 209L6 213L6 215L6 237L6 248L6 285L6 320L6 403L6 607L7.5 607.5L8.05556 607.833L9.05556 608.278L11 609.389L13 610.611L14 611.194L16 612.389L17 613L18 613.611L20 614.75L21 615.25L23 616.444L24 617.167L26 618.556L28 619.75L29 620.222L31 621.25L32 621.833L33 622.389L35 623.583L36 624.111L38 625L39.9167 625.889L41.6111 627L42.3889 627.611L44.0833 628.75L45.0278 629.25L47 630.389L49 631.611L51 632.806L52 633.389L54 634.611L55 635.194L57 636.389L59 637.583L60.9722 638.611L61.9167 639.056L62.7778 639.556L64.3889 640.639L65.2222 641.167L66.0833 641.75L67.0278 642.222L69 643.222L70 643.778L71 644.222L72.9722 645.25L73.9167 645.833L74.7778 646.361L75.6111 646.944L77.2222 648.028L78.0833 648.583L80 649.861L81 650.556L83 651.806L84 652.389L86 653.611L88 654.75L89 655.222L90 655.778L91 656.222L92 656.778L93 657.25L95 658.389L96 659.028L98 660.333L99 660.972L100 661.611L102 662.75L103 663.25L105 664.389L107 665.583L109 666.611L111 667.611L113 668.861L114 669.556L116 670.75L117 671.25L119 672.389L120 673.028L122 674.333L123 674.972L124 675.611L126 676.722L128 677.639L129 678.056L131 679.083L133 680.389L134 681.139L135 681.833L136 682.556L138 683.75L139 684.25L141 685.444L142 686.139L144 687.389L146 688.389L148 689.417L149 690L150 690.611L152 691.806L153 692.389L154 693.028L156 694.306L157 694.917L158 695.472L159 696L161 697.056L163 698.167L164 698.75L166 699.778L166.972 700.25L168.778 701.389L170.389 702.611L172.083 703.75L173.028 704.25L175 705.389L177 706.611L178 707.194L180 708.389L182 709.611L184 710.75L185 711.222L186 711.778L187 712.25L188 712.833L189 713.389L191 714.611L192 715.194L194 716.389L196 717.611L198 718.75L199 719.25L201 720.389L202 721.028L203 721.667L205 722.972L206 723.611L208 724.75L209 725.25L211 726.389L213 727.611L214 728.194L216 729.389L218 730.611L220 731.75L221 732.222L222 732.75L223 733.167L224 733.639L226 734.639L227 735.278L229 736.778L230 737.528L232 738.806L233 739.389L234 740.028L236 741.333L237 741.972L238 742.611L240 743.75L241 744.222L242 744.778L243 745.222L244 745.778L245 746.25L246 746.833L247 747.389L249 748.667L251 749.972L252 750.611L254 751.75L255 752.25L256 752.833L257 753.389L258 754.028L259 754.667L261 755.972L262 756.611L264 757.75L265 758.222L266 758.778L267 759.25L269 760.389L270 761.028L271 761.667L273 762.972L274 763.611L276 764.75L277 765.25L278 765.833L280 766.944L282 768.028L283 768.583L285 769.861L286 770.556L288 771.75L289 772.25L291 773.361L292 773.944L293 774.444L294 774.944L295.917 775.889L297.611 777L298.389 777.611L300.083 778.75L301.028 779.25L303 780.389L304 781.028L305 781.667L307 782.917L308 783.472L310 784.528L311 785.083L313 786.333L315 787.583L316.972 788.611L317.917 789.056L318.778 789.556L320.389 790.639L322.083 791.75L323.028 792.222L324.972 793.25L326.778 794.389L328.389 795.611L329.222 796.194L330.083 796.806L331.028 797.361L332 797.944L334 798.944L335 799.389L337 800.472L338 801.167L340 802.556L342 803.75L343 804.222L344 804.75L345 805.167L346 805.611L348 806.333L349 806.667L350 807L352 807.5L353 807.556L354 807.5L356 807L358 806.333L360 805.667L361 805.306L362 804.917L364 803.944L366 802.833L367 802.25L369 801.222L370 800.778L371 800.222L372 799.75L373 799.167L374 798.611L376 797.389L378 796.194L379 795.611L381 794.389L382 793.806L383 793.167L384 792.556L386 791.167L387 790.444L389 789.25L390 788.75L392 787.611L394 786.389L396 785.194L397 784.611L398 783.972L399 783.333L401 782.083L403 780.972L404 780.417L406 779.139L407 778.444L409 777.25L410 776.778L411.917 775.75L413.611 774.639L414.389 774.056L416.083 773.056L417.028 772.611L419 771.583L421 770.389L423 769.25L424 768.778L425.917 767.75L426.778 767.167L427.611 766.611L429.222 765.389L431.028 764.25L432 763.778L434 762.778L435 762.222L437 761.222L438 760.75L440 759.556L442 758.167L443 757.444L444.972 756.25L445.917 755.75L447.611 754.639L448.389 754.056L450.083 753.056L451.028 752.611L453 751.583L455 750.389L457 749.194L458 748.611L460 747.389L462 746.25L463 745.75L465 744.611L467 743.389L469 742.25L470 741.75L472 740.556L474 739.167L475 738.444L477 737.25L478 736.778L479 736.222L480 735.75L482 734.611L483 733.972L485 732.667L487 731.389L488 730.833L489 730.25L491 729.25L492 728.833L493 728.361L495 727.361L496 726.722L498 725.278L499 724.611L501 723.472L502 722.944L503 722.361L504 721.806L506 720.556L507 719.833L509 718.444L511 717.25L512 716.75L514 715.611L516 714.389L517 713.833L518 713.25L519 712.778L520 712.222L521 711.778L522 711.222L523 710.75L525 709.611L526 708.972L528 707.611L529 706.889L531 705.611L533 704.639L534 704.167L535 703.722L536 703.167L538 702L539.917 700.806L541.611 699.611L543.222 698.389L545.028 697.25L546 696.75L548 695.639L549 695.056L550 694.528L552 693.472L553 692.944L555 691.806L556 691.194L558 690L559 689.389L561 688.25L562 687.75L564 686.611L565 685.972L567 684.667L568 684.028L569 683.389L571 682.25L572 681.778L573 681.222L574 680.75L576 679.611L577 678.972L579 677.667L580 677.028L581 676.389L583 675.25L584 674.778L585 674.222L586 673.778L587 673.25L588 672.833L589 672.361L591 671.389L593 670.111L594 669.361L596 667.889L598 666.583L599 666.028L601 664.917L602 664.306L604 663.028L605 662.389L607 661.25L608 660.75L610 659.611L612 658.389L614 657.194L615 656.611L617 655.389L618 654.833L619 654.25L621 653.222L622 652.75L624 651.556L625 650.861L627 649.583L628 649.028L630 647.917L631 647.306L633 646.028L634 645.389L635 644.806L637 643.611L639 642.389L641 641.25L642 640.75L644 639.556L645 638.833L647 637.472L649 636.389L650 635.944L652 634.944L653 634.361L655 633.25L657 632.222L658 631.75L659 631.167L660 630.611L662 629.333L664 628.028L665 627.389L667 626.25L668 625.778L669 625.222L670 624.75L672 623.556L673 622.833L675 621.444L677 620.25L678 619.778L679 619.222L680 618.778L681 618.222L682 617.75L684 616.556L686 615.167L687 614.444L689 613.25L690 612.75L692 611.556L693 610.861L695 609.583L696 609.028L697.944 608.028L698.944 607.611L699.5 607.333L701 607L701 604.944L701.028 603.944L701.083 603L701.389 601L701.611 600L701.917 598L702 596L702 595L702 592L702 585L702 564L702 500L702 487L702 479L702 468L702 460L702 447L702 443L702 437L702 430L702 424L702 417L702 411L702 306L702 304L702 297L702 295L702 288L702 268L702 265L702 263L702 262L702 260L702 233L702 229L702 228L702 227L702 215L702 211L702 209L701.972 207L701.917 206L701.611 204L701.389 203L701.194 202L701 201L700.5 199L699.5 197.083L697.917 195.472L697 194.833L695.222 193.639L694.389 193.056L692.778 192.083L691.917 191.694L690.083 190.917L688.389 189.944L687.611 189.361L685.917 188.25L684.972 187.75L684 187.167L682 186.056L680 185.056L679 184.611L677 183.583L676 182.972L674 181.694L673 181.083L671 180.056L670 179.611L668 178.583L666 177.389L664 176.25L663 175.75L661 174.639L660 174.056L658 173.056L656 172.167L655 171.722L653 170.556L652 169.833L650 168.472L649 167.917L648 167.417L646 166.583L644 165.583L642 164.389L640 163.25L639 162.75L637 161.639L636 161.056L634 160.056L633 159.611L631 158.583L629 157.389L627 156.194L626 155.639L625 155.056L623 154.056L622 153.611L620 152.583L618 151.389L617 150.833L616 150.25L614 149.222L613 148.778L612 148.222L611 147.778L609.028 146.75L607.222 145.639L606.389 145.056L604.778 144.083L602.972 143.333L601 142.583L599 141.583L597.083 140.333L595.389 139.083L593.778 138.056L591.972 137.167L591 136.75L589 135.778L588 135.222L587 134.778L585 133.75L583 132.611L581 131.417L579.028 130.389L578.083 129.944L576.389 129L574.778 128.056L572.972 127.167L572 126.722L570 125.611L568 124.389L566 123.194L565 122.639L564 122.056L562 121.056L561 120.611L559 119.583L558 118.972L556 117.667L555 117.028L554 116.417L552 115.389L551 114.944L549 113.944L548 113.361L546 112.278L545 111.833L543 110.944L541 109.944L540 109.361L538 108.25L537 107.75L535 106.611L533 105.389L531 104.25L529 103.222L528 102.778L527 102.222L526 101.75L524 100.611L522 99.3889L520 98.1945L519 97.6389L518 97.0555L516 96.0555L515 95.6389L514 95.1667L513 94.75L512 94.2222L511 93.75L510 93.1667L509 92.6111L507 91.3333L506 90.6667L504 89.3889L503 88.8333L502 88.25L500 87.2222L499 86.7778L497 85.7778L496 85.2222L495 84.7778L493 83.75L492 83.1667L491 82.6111L489 81.4166L488 80.8889L486 79.9445L484 79L482.083 78L481.222 77.5L479.611 76.5278L478.778 76.0555L477.917 75.6111L476 74.5834L474 73.3889L472 72.25L471 71.7778L469 70.75L468 70.1667L466 69.0555L464 68.0555L462.083 67.1111L460.389 66L459.611 65.3889L457.917 64.2778L456.972 63.8333L456 63.3889L455 63L453 62.1111L451 61L450 60.3889L448 59.25L447 58.75L445 57.6389L444 57.0555L442 56.0555L440 55.1667L439 54.7222L437 53.6111L435 52.4166L433 51.3889L432 50.9445L430 49.9167L429 49.3055L427 48.0278L426 47.3889L424 46.25L423 45.75L421 44.6389L420 44.0555L418 43.0555L417.028 42.6111L416.083 42.1111L414.389 41.0555L412.778 40.0833L411.917 39.6945L410.083 38.9167L409.222 38.4445L407.611 37.3611L405.917 36.25L404 35.2222L403 34.7778L401 33.7778L400 33.2222L399 32.7778L398 32.2222L397 31.7778L396 31.2222L395 30.7778L393 29.75L392 29.1667L391 28.6111L389 27.3333L387 26.0278L386 25.3889L384 24.25L383 23.7778L382 23.2222L381 22.7778L380 22.2222L378 21.2222L377 20.7778L375 19.75L373 18.6111L372 18L371 17.4166L369.028 16.3889L368.111 15.9722L367.306 15.4167L366.778 15.1667L366 14L364.5 13.9167L362.944 13.5278L361 12.8333L360 12.4445L359 12.1667L357 11.6389L356 11.3889L354 11.0833L353 11.0278L351 11.0833L349 11.4167L347.028 12.0278L346.083 12.4166L344.389 13.3889L343.611 13.9445L341.917 14.9167L340.972 15.3055L339 16.0278L337 16.8333L336 17.25L335 17.7778L334 18.25L332 19.4445L330 20.75L329 21.3333L327 22.2222L326 22.6667L324 23.8611L323 24.5555L322 25.1389L321 25.75L320 26.2222L318 27.2222L317 27.7778L316 28.2222L314.083 29.25L312.389 30.3611L311.611 30.9445L309.917 31.9445L308.972 32.3611L307 33.2778L305 34.3889L303 35.6111L301 36.75L300 37.2222L299 37.7778L297 38.7778L296 39.25L294 40.3889L292 41.6111L290 42.75L289 43.25L287 44.3889L285 45.6111L283 46.75L282 47.2222L281 47.7778L280 48.2222L279 48.7778L277 49.7778L276 50.2222L274.111 51.25L273.333 51.8055L272.361 52.7778L272 54z"/>
<path style="fill:#F1C835; stroke:none;" d="M342.667 14.3333L343 14.6667L343.333 14.6667L343 14.3333L342.667 14.3333M366.667 15.3333L366.667 15.6667L367.333 15.6667L367 15.3333L366.667 15.3333M328.667 21.3333L329 21.6667L329.333 21.6667L329.333 21.3333L328.667 21.3333M390.667 28.3333L391 28.6667L391.333 28.6667L391 28.3333L390.667 28.3333M310.667 31.3333L311 31.6667L311.333 31.6667L311 31.3333L310.667 31.3333M408 38L408.722 38.7222L409.25 38.75L411 39L410.278 38.2778L409.75 38.25L408 38M414.667 41.3333L414.667 41.6667L415.333 41.6667L415 41.3333L414.667 41.3333M284.667 45.3333L285 45.6667L285.333 45.6667L285 45.3333L284.667 45.3333M430.667 50.3333L431 50.6667L431.333 50.6667L431 50.3333L430.667 50.3333M270.667 53.3333L270.667 53.6667L271.333 53.6667L271 53.3333L270.667 53.3333M240.667 69.3333L241 69.6667L241.333 69.6667L241 69.3333L240.667 69.3333M232.667 73.3333L233 73.6667L233.333 73.6667L233.333 73.3333L232.667 73.3333M480.667 77.3333L481 77.6667L481.333 77.6667L481 77.3333L480.667 77.3333M216.667 82.3333L217 82.6667L217.333 82.6667L217 82.3333L216.667 82.3333M157 114L157.778 114.611L158.306 114.444L159.056 114.333L160.5 113.667L162 113L161.222 112.361L160.694 112.5L159.944 112.5L158.5 113.028L157 114M144 121L144.778 121.694L145.25 121.694L146.528 121.694L148 121L147.222 120.361L146.75 120.472L145.944 120.472L144 121M576.667 129.333L577 129.667L577.333 129.667L577 129.333L576.667 129.333M112 138L112.778 138.639L113.306 138.528L114.111 138.528L116 137.917L118 136.944L118.944 136.389L119.944 135.889L120.5 135.528L122 135L121.222 134.306L120.694 134.361L119.889 134.361L118 135.083L116 136.167L115.056 136.722L113.5 137.5L112 138M597 140L597.778 141.222L598.306 141.556L599.056 142.111L600.5 142.722L602 143L601.222 141.944L599.944 141.056L599.028 140.639L598.5 140.333L597 140M606.667 145.333L606.667 145.667L607.333 145.667L607 145.333L606.667 145.333z"/>
<path style="fill:#9eccf7; stroke:none;" d="M423 181L424 182L424 184L425.5 184.111L427.056 184.639L429 185.639L430 186.167L431 186.75L432 187.25L434 188.389L436 189.583L438 190.583L440 191.417L441 191.889L443 193L444 193.583L446 194.583L447.917 195.417L449.611 196.389L451.222 197.472L452.083 198L454 199.056L455 199.639L456 200.167L457 200.75L458 201.222L459 201.778L460 202.222L462 203.25L463 203.833L465 204.944L466 205.472L468 206.528L469 207.056L470 207.639L471 208.194L473 209.389L475 210.611L476 211.167L477 211.75L478 212.222L479 212.75L481 213.611L483 214.417L485 215.472L486 216.139L488 217.417L489 217.972L491 219.083L492 219.694L494 220.972L495 221.611L497 222.75L498 223.222L499 223.778L501 224.75L503 225.556L504 225.861L506 226.611L507 227.111L509 228.306L510 228.889L510.944 229.361L512.5 229.889L514 230L515 231L515 233L516.5 233.083L518.056 233.472L519.917 234.278L521.611 235.389L523.222 236.611L525.028 237.75L526 238.222L527 238.75L529 239.639L530 240.056L532 241.056L533 241.639L535 242.75L536 243.222L537 243.75L538 244.167L539 244.639L540 245.056L542 246.083L543 246.694L545 247.917L547 249L548 249.528L549 250.083L551 251.333L552 251.972L553 252.611L555 253.75L557 254.778L558 255.222L559 255.778L560 256.222L561 256.778L562 257.222L564 258.222L565 258.778L567 259.778L568 260.222L568.972 260.778L569.917 261.25L571.611 262.389L572.389 263.028L574.083 264.389L575.028 265.111L576.944 266.306L577.5 266.639L579 267L579 269.056L579.028 270.056L579.083 271L579.389 273L579.611 274L579.917 276L579.972 277L580 279L580 281L580 282L580.028 284L580.083 285L580.389 287L580.611 288L580.917 290L581 292L580.917 294L580.611 296L580.389 297L580.083 299L580 301L580 302L580 304L580 310L580 317L580 327L580 328L580 380L580 385L580 400L580 414L580 420L580 539L578.5 539.833L576.944 540.639L575 541.861L574 542.528L573 543.056L572 543.528L570 544.222L568 545.083L567 545.639L565 546.806L564 547.389L562 548.611L560 549.806L559 550.389L557 551.667L556 552.333L555 552.972L554 553.611L552 554.75L551 555.222L550 555.778L549 556.222L547.028 557.25L546.083 557.833L545.222 558.361L544.389 558.944L542.778 559.944L541.917 560.389L540 561.417L538 562.611L536 563.806L535 564.389L533 565.611L531 566.806L530 567.389L528 568.611L526 569.806L525 570.389L523 571.611L522 572.194L520 573.389L518 574.611L516 575.75L515 576.25L513 577.389L511 578.611L510 579.194L509 579.806L508 580.389L506 581.611L505.028 582.194L503.278 583.417L502.083 584.583L501 586L499.5 586.111L497.944 586.639L496 587.639L495 588.167L494 588.75L493 589.25L491 590.361L490 590.944L489 591.472L488 592L486 593.083L484 594.333L483 594.972L482 595.611L480 596.75L479 597.25L477.083 598.472L476.278 599.194L475.472 600.028L474 602L472.5 602.083L470.944 602.5L469 603.417L467 604.667L465 605.972L464 606.583L462 607.611L461 608.056L459 609.056L458 609.639L457 610.194L455.083 611.472L454.278 612.194L453.472 613.028L452 615L448 615L447.639 616.222L447.278 616.583L446.667 617.222L445.889 617.806L444 618.917L443 619.361L441 620L440 620.306L438 621.306L437 622L435 623.361L434 623.917L432 624.833L431 625.278L429 626.444L428 627.139L426 628.333L424 629.222L423 629.667L421 630.861L420 631.556L418 632.75L417 633.25L415 634.389L414 635.028L413 635.667L411 637L409 638.306L407.028 639.472L406.111 639.972L405.306 640.556L404.778 640.833L404 642L400 642L399.639 643.167L399.278 643.417L398.667 643.972L397.889 644.389L396 645.417L394 646.611L392 647.806L391 648.389L389 649.667L388 650.333L386 651.611L385 652.194L383 653.444L382 654.139L380 655.333L378 656.139L377 656.472L375 657.472L374 658.167L372 659.556L370 660.722L369 661.167L367 662.083L365 663.278L363 664.806L362 665.611L360 667.111L358 668.389L356 669.278L354 669.694L352 669.5L351 669.139L349 668.222L347.028 667.222L346.083 666.75L344.389 665.639L343.611 665.056L341.917 664.056L340.972 663.611L339 662.583L337 661.389L335 660.25L334 659.75L332 658.556L331 657.833L329 656.472L327 655.389L325 654.444L324 653.944L323 653.361L321 652.25L320 651.75L318 650.556L316 649.167L315 648.444L313 647.25L312 646.778L311 646.222L310 645.75L308 644.611L307 643.972L305 642.667L304 642.028L303 641.389L301 640.25L300 639.778L299 639.222L298 638.778L296.083 637.75L295.222 637.167L294.389 636.611L293.611 636L291.917 634.833L290 633.778L289 633.222L288 632.778L287 632.222L286 631.75L284 630.556L283 629.833L281 628.444L279 627.25L278 626.75L277 626.167L275 625.056L274 624.556L272 623.611L270 622.528L268 621.167L267 620.444L265.028 619.25L264.083 618.75L262.389 617.639L261.611 617.056L259.917 616L258 614.944L256 613.833L255 613.25L253 612.222L252 611.75L250 610.556L249 609.861L247 608.583L246 608.028L244 606.944L242 605.833L241 605.25L240 604.75L238 603.611L237 602.972L235 601.667L234 601.028L233 600.389L231 599.25L230 598.75L228 597.611L226 596.417L224 595.389L222 594.389L220 593.139L219 592.444L217 591.25L216 590.75L214 589.556L213 588.833L211 587.444L209 586.25L208 585.75L206 584.639L205 584.056L204 583.528L202 582.417L200 581.139L199 580.444L197 579.25L196 578.75L195 578.167L193 577.056L192 576.528L191 576L189 574.917L187 573.667L185 572.389L184 571.806L182 570.556L181 569.861L179 568.583L177 567.472L176 566.944L174 565.806L173 565.194L172 564.611L170 563.417L168.083 562.389L167.222 561.944L165.611 560.944L164.778 560.361L162.972 559.25L162 558.778L161 558.222L159 557.222L158 556.75L156 555.611L154 554.333L153 553.667L152 553.028L151 552.389L150 551.806L149 551.194L147 550.056L145.028 548.972L143.306 547.694L142.111 546.028L141.694 545.056L141.444 544.5L141 543L136 543L135.222 541.583L134.694 541.167L133.889 540.361L132 539.083L130.056 538.056L129.5 537.833L128 537L128 336L128 285L128 282L128 280L127.972 278L127.917 277L127.611 275L127.389 274L127.083 272L127.111 270L127.722 268.111L128.333 267.306L130.028 266.028L132 264.944L133 264.361L134 263.806L135 263.194L136 262.611L138 261.306L140 259.861L141 259.167L142 258.472L144 257.417L146 256.583L147 256.111L149 255L150 254.389L151 253.833L152 253.25L154 252.222L155 251.778L156 251.222L157 250.75L158 250.167L159 249.611L161 248.389L163 247.194L164 246.639L165 246.056L167 245.056L168 244.611L170 243.611L171 243.056L173 242.056L174 241.639L176 240.722L177 240.167L178 239.611L180 238.389L182 237.25L183 236.75L185 235.611L187 234.417L189 233.389L191 232.389L193 231.139L194 230.444L196 229.25L197 228.778L199 227.778L201 226.778L202 226.222L203 225.778L204 225.222L205 224.778L207 223.75L208 223.167L209 222.611L211 221.417L212.972 220.389L213.917 219.944L214.778 219.472L215.611 219L217.222 218.056L219.028 217.194L220 216.806L221 216.361L223 215.444L224 214.917L226 213.667L227 213.028L228 212.389L230 211.25L231 210.778L232 210.222L234 209.25L235 208.833L236 208.361L238 207.389L240 206.139L241 205.444L243 204.194L244 203.611L246 202.389L247 201.833L248 201.25L249 200.75L250 200.167L251 199.639L252 199.056L254 198.056L255 197.639L257 196.75L259 195.778L260 195.222L261 194.75L262 194.167L263 193.611L265 192.389L267 191.194L268 190.639L269 190.056L271 189.056L273 188.111L274 187.583L276 186.417L277 185.889L279 184.917L280 184.389L282 183.139L283 182.472L285 181.389L286 180.944L288 179.944L289 179.361L290 178.806L291 178.194L293 177.083L295 176.194L296 175.778L297 175.333L299 174.139L300 173.444L302 172.194L303 171.639L304 171.056L306 170.056L307 169.639L308 169.167L309 168.75L310 168.222L311 167.75L313 166.556L314 165.833L316 164.444L318 163.25L319 162.778L320 162.222L322 161.25L324 160.389L325.972 159.583L327.778 158.611L328.611 158.056L330.222 157.056L331.917 156.139L332.694 155.556L333.222 155.222L334 154L335.5 153.889L337.056 153.361L339 152.306L341 151.028L342 150.389L344 149.278L346 148.389L347 148.028L349 147.333L351 146.694L352 146.444L354 146.389L355 146.639L357 147.417L359 148.139L360 148.444L362 149.167L363 149.556L364 149.861L366 150.667L368 151.889L369 152.611L371 153.972L372 154.611L374 155.722L376 156.611L377.917 157.417L379.611 158.389L381.222 159.472L382.083 160L384 161.056L385 161.611L387 162.611L388 163.056L390 164.056L391 164.639L392 165.194L393 165.806L395 166.917L396 167.389L398 168.222L399 168.694L400 169.306L402 170.778L403 171.528L405 172.75L406 173.222L408 174.222L409 174.778L410 175.222L411 175.778L413 176.778L414 177.222L416 178.25L417 178.833L418 179.361L419.944 180.361L421.5 180.889L423 181z"/>
<path style="fill:#F1C835; stroke:none;" d="M342 150L342.778 150.639L343.306 150.5L344.111 150.472L345.944 149.806L346.5 149.5L348 149L347.222 148.361L346.694 148.5L345.889 148.528L344.056 149.194L343.5 149.5L342 150M363 150L363.778 150.972L364.25 151.139L365.528 151.722L367 152L366.222 150.861L365.75 150.667L364.472 150.111L363 150M128 273L128 276.056L128 277L128 298L128 308L128 385L128 537L129.5 537.833L130.056 538.056L132 539.083L133.889 540.361L134.694 541.167L135.222 541.583L136 543L138.056 543.083L139.944 543.389L141.5 543.75L143 544L143.25 542.5L143.611 540.944L143.806 540L144.194 538L144.389 537L144.778 535L144.917 534L145.028 532L145.083 531L145.222 530L145.611 528L145.917 526L145.972 525L146 523L146 522L146 519L146 518L146.028 516L146.083 515L146.389 513L146.611 512L146.917 510L146.972 509L147 507L147 505L147 502L147 495L147 493L147 492L146.917 490L146.778 489L146.389 487L146.083 485L146.028 484L146 482L146 481L146 479L146 470L146 358L146 309L146 307L146 303L146 301L146.028 300L146.083 299L146.389 297L146.611 296L146.917 294L147.028 292L147.083 291L147.389 289L147.639 288L148.25 286L148.694 285L150.111 283.028L151.028 282.083L153 280.389L154 279.639L156 278.167L157 277.444L159 276.25L160 275.75L162 274.639L163 274.056L165 273.056L166 272.639L168 271.722L169 271.167L170 270.611L171 270L173 268.889L174 268.417L175 268L177 267.111L178 266.583L180 265.417L181 264.889L182 264.417L184 263.583L185 263.111L187 262L188 261.417L190 260.389L191 259.944L193 258.944L194 258.361L196 257.278L197 256.833L198 256.389L200 255.583L202 254.583L204 253.417L205.917 252.389L206.778 251.944L207.611 251.444L209.222 250.361L211.028 249.278L212 248.833L213 248.389L215 247.583L216 247.083L218 245.833L219 245.139L220 244.389L222 243.028L223 242.389L225 241.25L226 240.75L228 239.556L229 238.861L231 237.667L232 237.25L233.889 236.528L234.667 236.111L235.639 235.222L236 234L240 234L240.778 232.833L241.306 232.556L242.111 231.972L244 230.944L246 229.833L247 229.25L248 228.75L250 227.611L251 226.972L253 225.694L255 224.528L256 224L258 223L261 221.5L262 221L264 220.056L266 219.111L267 218.583L269 217.417L270 216.889L271 216.417L273 215.583L275 214.583L277 213.389L279 212.25L280 211.75L282 210.639L283 210.056L285 209.056L286 208.639L288 207.722L289 207.167L290 206.611L292 205.417L294 204.389L295 203.917L296 203.389L297 202.778L299 201.472L300 200.917L301 200.417L303 199.611L305 198.722L306 198.167L308 197.056L310 196L312 194.917L313 194.306L315 193.083L316.972 192.056L317.917 191.611L319.611 190.583L321.222 189.389L323.028 188.25L324 187.778L325 187.222L326 186.75L328 185.611L329 184.972L330 184.333L331 183.667L333 182.389L335 181.25L336 180.75L338 179.611L340 178.417L342 177.389L343 176.917L344 176.389L346 175.194L348 174.111L349 173.694L351 173L352 172.667L354 172L356 171.333L358 170.694L359 170.389L360 170.139L362 169.639L363 169.389L365 169.167L367 169.389L368 169.611L370 169.917L371 169.972L373 170.083L375 170.417L376 170.694L378 171.333L380 172.028L381 172.389L382 172.833L383 173.25L385 174.222L386 174.778L387 175.222L389 176.222L390 176.778L391 177.222L392 177.778L394 178.778L395 179.25L396 179.833L397 180.389L399 181.583L400 182.111L402 183L403.917 183.889L405.611 185L407.222 186.111L408.083 186.611L410 187.556L411 188.056L412 188.639L413 189.194L414 189.806L416 190.944L417 191.472L419 192.583L421 193.861L422 194.556L424 195.75L425 196.222L427 197.222L428 197.778L429 198.222L431 199.25L433 200.389L434 201.028L436 202.306L437 202.917L439 203.944L441 204.833L442 205.278L443 205.833L444 206.389L446 207.611L447 208.167L448 208.75L449 209.222L451 210.222L452 210.778L453 211.222L455 212.25L456 212.833L457 213.389L459 214.583L460 215.111L462 216L464 216.889L465 217.417L467 218.667L468 219.333L470 220.611L471 221.167L472 221.722L474 222.639L475 223.056L477 224.056L478 224.639L480 225.75L481 226.222L482 226.778L483 227.222L485 228.222L486 228.778L487 229.222L488 229.778L489 230.222L491 231.222L492 231.778L493 232.222L495 233.25L496 233.833L497 234.389L499 235.583L500.972 236.611L501.917 237.056L502.778 237.556L504.389 238.611L506.083 239.611L507.028 240.056L509 241.056L511 242.194L512 242.806L513 243.389L515 244.667L517 245.917L519 246.944L520 247.389L522 248.417L524 249.611L526 250.75L527 251.25L529 252.389L530 253.028L532 254.333L534 255.611L535 256.167L536 256.75L538 257.778L539 258.222L540 258.778L541 259.222L542 259.778L544 260.75L545 261.167L546.917 262.056L548.611 263L549.389 263.5L551.083 264.528L553 265.639L554 266.167L555 266.722L557 267.556L558 267.861L560 268.611L562 269.639L563 270.167L564 270.75L565 271.222L566 271.75L567 272.139L568 272.556L569 272.861L571 273.583L572.944 274.389L574.5 274.889L576 275L575.639 273.583L575.278 273.167L574.667 272.333L572.972 270.806L572 270L570.083 268.417L568.389 267.028L567.611 266.389L565.917 265.167L564.972 264.556L564 263.833L562 262.444L560 261.25L559 260.778L557 259.75L556 259.167L555 258.611L553 257.389L552 256.833L551 256.25L550 255.778L549 255.25L547 254.389L545 253.611L543 252.75L542 252.222L541 251.778L540 251.222L539 250.778L538 250.222L537 249.778L536 249.222L535 248.778L534 248.222L533 247.778L532 247.222L531 246.778L529 245.75L528 245.167L526 244.056L524 243.056L523.028 242.611L522.083 242.111L520.389 241.056L518.778 240.083L516.972 239.306L515 238.389L513 237.139L512 236.444L510 235.194L509 234.611L508 233.972L506 232.694L505 232.083L503 231.056L502 230.611L500 229.583L498 228.389L496 227.25L495 226.75L493 225.611L491 224.389L489 223.25L488 222.75L487 222.167L486 221.639L485 221.056L483 220L482 219.5L480 218.5L479 218L477 216.944L476 216.361L475 215.833L474 215.25L472 214.222L471 213.778L470 213.222L468 212.222L467 211.778L466 211.222L465 210.75L463 209.639L462 209.056L460 208.056L458 207.167L457 206.722L456 206.167L455 205.611L453 204.389L451 203.278L450 202.833L449 202.361L447 201.389L445 200.139L444 199.444L442 198.25L441 197.778L439 196.778L438 196.222L437 195.778L436 195.222L435 194.75L434 194.167L432 193.056L430.083 192L428.389 190.944L426.778 189.833L425.917 189.25L424.972 188.778L424 188.25L423 187.833L422 187.361L421 186.944L419 185.944L418 185.361L416 184.25L415 183.778L414 183.222L413 182.778L412 182.222L411 181.778L410 181.222L409 180.75L407 179.611L406 178.972L404 177.667L402 176.389L400 175.25L399 174.75L397 173.639L396 173.056L395 172.556L393 171.611L391 170.528L390 169.833L388 168.444L386 167.25L385 166.778L383 165.778L382 165.222L380 164.222L379.028 163.75L377.222 162.611L376.389 162L375.611 161.389L373.917 160.278L372.972 159.833L371 159L370 158.583L368 157.583L366 156.389L365 155.806L364 155.194L362 154.056L360 153.056L359 152.639L357 151.833L356 151.472L354 151.167L353 151.25L352 151.417L350 152L349 152.333L347 153.028L346 153.389L344 154.25L343 154.778L341 155.778L340 156.25L339 156.833L338 157.389L337 158L335 159.111L333 160L332 160.389L331.028 160.833L330.083 161.278L328.389 162.389L327.611 163L326.778 163.611L324.972 164.75L324 165.222L323 165.778L322 166.222L320 167.25L319 167.833L318 168.389L316 169.667L314 170.972L313 171.611L311 172.75L310 173.222L309 173.778L308 174.222L307 174.778L305 175.778L304 176.25L303 176.833L302 177.389L300 178.611L299 179.194L297 180.389L295 181.611L294 182.167L293 182.75L291 183.778L290 184.222L289 184.778L288 185.222L287 185.778L286 186.25L284 187.361L283.028 187.944L282.083 188.472L280.389 189.5L279.611 190L277.944 190.944L277.056 191.389L276.222 191.889L274.611 192.944L272.917 193.944L271.972 194.361L271 194.806L270 195.194L269 195.639L267 196.556L266 197.083L264 198.306L263 198.917L262 199.444L260 200.361L259 200.833L258 201.25L256 202.222L255 202.778L254 203.222L252 204.25L251 204.833L250 205.389L248 206.611L247 207.167L246 207.75L245 208.222L243 209.25L241 210.389L239 211.611L237 212.722L236 213.167L234 214.056L232 215.056L231 215.639L230 216.194L229 216.806L227 217.944L226 218.472L224 219.528L223 220.056L221 221.194L220 221.806L219 222.389L217 223.611L216 224.167L215 224.75L213 225.778L212 226.222L211 226.778L209 227.778L208 228.25L206 229.444L205 230.167L203 231.556L201 232.75L200 233.222L198 234.222L197 234.778L196 235.222L195 235.778L193 236.778L192 237.222L190 238.25L189 238.833L187 239.944L186 240.472L184 241.528L183 242.056L182 242.639L180 243.75L179 244.25L178 244.833L177 245.361L176 245.944L174 246.944L173 247.361L171.028 248.194L169.222 249.056L167.611 250L165.917 250.917L164.972 251.306L163 252.111L162 252.611L160 253.861L159 254.528L157.083 255.611L156.222 256.056L154.611 257L153.778 257.472L152.917 257.944L151.972 258.361L150 259.25L149 259.778L148 260.25L147 260.833L146 261.389L144 262.611L142 263.75L141 264.25L139 265.389L138 266.028L136 267.389L134 268.861L133 269.611L132 270.306L130.056 271.611L129.5 271.944L128 273M334 154L334 156L335 156L336 154L334 154M376 157L376.778 157.972L377.25 158.139L378.528 158.722L380 159L379.222 158.028L378.75 157.861L377.472 157.278L376 157M387.667 163.333L388 163.667L388.333 163.667L388 163.333L387.667 163.333M61 167L62.75 166.333L63.2778 166.139L64 165L62.25 165.667L61.7222 165.861L61 167M397 168L397.722 169.139L398.25 169.333L400 170L399 168L397 168M421 181L421.722 182.139L422.25 182.333L424 183L423 181L421 181M688.667 190.333L689 190.667L689.333 190.667L689 190.333L688.667 190.333M694.667 193.333L695 193.667L695.333 193.667L695 193.333L694.667 193.333M446 195L446.778 195.972L447.25 196.139L448.528 196.722L450 197L449.222 196.028L448.75 195.861L447.472 195.278L446 195M700 197L700.25 198.5L700.611 200.056L700.806 201L701.194 203L701.389 204L701.611 205L701.917 207L701.972 208L702 209L702 211L702 214L702 218L702 220L702 221L702 239L702 240L702 242L702 243L702 302L702 311L702 315L702 319L702 322L702 323L702 344L702 350L702 354L702 363L702 371L702 380L702 382L702 501L702 502L702 577L702 590L702 593L702 594L702 595L701.917 597L701.778 598L701.611 599L701.222 601L701.083 602L700.917 604L700.611 606L700.361 607L699.75 609L699.306 609.972L697.889 611.778L696.972 612.583L695 614L694 614.667L692 615.972L691 616.611L690 617.194L688 618.389L686 619.667L684 620.972L683 621.611L681 622.75L680 623.222L679 623.778L678 624.25L677 624.833L675 625.944L673 626.944L672 627.389L670 628.472L669 629.167L667 630.556L665 631.75L664 632.222L662 633.222L661 633.778L659.028 634.778L658.083 635.25L657.222 635.833L656.389 636.389L654.778 637.611L652.972 638.75L651 639.778L650 640.222L649 640.778L648 641.222L647 641.778L646 642.25L644 643.444L643 644.167L642 644.861L641 645.611L639 646.917L637 647.944L636 648.389L634 649.472L632 650.833L631 651.556L629 652.806L628 653.389L626 654.667L624 655.917L622 657L621 657.528L620 658.056L619 658.639L617 659.75L616 660.25L614 661.444L613 662.167L611 663.556L609 664.75L608 665.25L606 666.389L604 667.611L602 668.806L601 669.389L599 670.611L598 671.167L597 671.75L596 672.222L595 672.778L594 673.25L592 674.389L591 675.028L590 675.667L588 676.972L587 677.611L585 678.75L584 679.222L583 679.778L582 680.25L581 680.833L579 681.944L578 682.472L577 683L575 684.083L573 685.333L571 686.611L569 687.806L567 688.944L566 689.472L564 690.528L563 691.083L562 691.694L560 692.972L559 693.611L557 694.75L556 695.222L555.028 695.778L554.083 696.25L553.222 696.833L552.389 697.389L550.778 698.611L548.972 699.75L548 700.222L546 701.25L545 701.833L543 702.944L542 703.444L540 704.389L538 705.472L537 706.167L535 707.556L533 708.806L532 709.361L531 709.944L529 711.028L528 711.583L526 712.861L525 713.556L523 714.75L522 715.222L520.083 716.25L519.222 716.833L518.389 717.389L516.778 718.611L514.972 719.75L514 720.25L512 721.389L510 722.611L508 723.806L507 724.389L505 725.611L503 726.75L501 727.778L500 728.25L498 729.444L496 730.833L495 731.556L493 732.75L492 733.222L491 733.778L490 734.222L489 734.778L488 735.25L486 736.444L485 737.167L483 738.556L481 739.75L480 740.25L478 741.389L476 742.583L475 743.111L473 744.083L472 744.611L470 745.861L469 746.556L467 747.75L466 748.222L464 749.222L463 749.778L462 750.25L460 751.444L459 752.167L457 753.556L455 754.75L454 755.25L452 756.389L450 757.667L449 758.333L448 758.972L447 759.611L445 760.75L444 761.25L442 762.444L441 763.139L439 764.417L438 764.972L436 766.056L435 766.639L434 767.194L432 768.389L430 769.611L428 770.806L427 771.389L425 772.611L423 773.806L422 774.389L421 775.028L420 775.667L418 777L416 778.306L415 778.917L413 779.944L412 780.389L410 781.417L408 782.611L406 783.806L405 784.389L403 785.611L402 786.194L401 786.806L399 787.944L397 789.028L396 789.583L394 790.861L393 791.556L391 792.75L390 793.222L388 794.222L387 794.778L385.028 795.778L384.083 796.25L383.222 796.833L382.389 797.389L380.778 798.611L378.972 799.75L377 800.778L376 801.222L375 801.778L374 802.25L372 803.389L371 804.028L369 805.333L368 805.972L367 806.611L365 807.75L364 808.222L362 809.222L361 809.75L359 810.556L358 810.833L356 811.361L355 811.611L353 811.833L352 811.75L350 811.389L349 811.194L347 810.722L346 810.361L344 809.361L342 808.25L340 807.222L339 806.778L338 806.222L337 805.778L335.028 804.75L333.222 803.639L331.611 802.528L329.917 801.472L328.972 800.944L328 800.361L327 799.833L326 799.25L324 798.222L323 797.75L322 797.167L321 796.611L319 795.389L317 794.194L316 793.611L314 792.333L313 791.667L312 791.028L311 790.389L309 789.25L308 788.75L306 787.611L304 786.389L302 785.25L301 784.778L300 784.222L299 783.778L298 783.222L297 782.75L295 781.611L294 780.972L292 779.667L291 779L288 777L286 775.667L284 774.389L283 773.833L282 773.25L280 772.222L279 771.75L277 770.556L276 769.833L274 768.444L272 767.25L271 766.75L269 765.611L268 764.972L267 764.333L266 763.667L264 762.333L262 761.028L261 760.389L259 759.25L258 758.75L256 757.611L254 756.389L253 755.833L252 755.25L250 754.222L249 753.75L247 752.611L245 751.389L243 750.25L242 749.75L240 748.611L238 747.389L237 746.806L235 745.611L233 744.389L231 743.25L230 742.75L228 741.611L226 740.389L224 739.25L223 738.75L221 737.611L220 736.972L218 735.667L217 735.028L216 734.389L214 733.25L213 732.778L212 732.222L211 731.778L210 731.222L209 730.75L208 730.167L207 729.611L205 728.389L204 727.806L202 726.611L200 725.389L198 724.25L197 723.75L195 722.556L194 721.861L192 720.583L191 720.028L189 718.944L188 718.361L187 717.806L185 716.556L184 715.833L183 715.167L182 714.444L180 713.25L179 712.75L177 711.611L176 710.972L174 709.667L173 709.028L172 708.389L170 707.25L169 706.75L168 706.167L167 705.611L166 704.972L165 704.333L163 703L161 701.694L160 701.083L158 700.056L157 699.611L155 698.528L153 697.167L152 696.444L150 695.25L149 694.75L147 693.611L145 692.389L143 691.25L142 690.75L140 689.611L138 688.389L136 687.25L135 686.75L133 685.611L132 684.972L130 683.667L129 683.028L128 682.389L126 681.25L125 680.778L124 680.222L123 679.778L122 679.222L120 678.222L119 677.778L118 677.222L117 676.75L115 675.611L114 674.972L113 674.333L111 673.028L110 672.389L108 671.25L107 670.75L106 670.167L105 669.611L104 668.972L102 667.667L101 667.028L100 666.389L98 665.25L97 664.778L96 664.222L95 663.75L93 662.556L91 661.167L90 660.444L88 659.25L87 658.778L86 658.222L85 657.75L83 656.556L81 655.167L80 654.444L78 653.25L77 652.778L76 652.222L75 651.778L74 651.222L73 650.75L71 649.556L69 648.167L68 647.444L66 646.25L65 645.75L63 644.611L61 643.389L59 642.194L58 641.611L57 640.972L56 640.333L55 639.667L53 638.389L52 637.806L50 636.611L48 635.389L47 634.806L45 633.611L43 632.417L42 631.889L40 631L39 630.583L37 629.611L36 629.056L34 628.083L33 627.694L31.0833 626.917L29.3889 625.944L28.6111 625.389L26.9167 624.472L25.9722 624.139L24 623.417L22.0556 622.611L21.0556 622.306L20.5 622.111L19 622L19.3611 623.167L19.6944 623.444L20.25 624.028L21.6389 625.083L22.3889 625.694L24.0833 627L26 628.389L28 629.861L29 630.611L30 631.306L32 632.694L33 633.389L34 634.139L36 635.556L38 636.75L38.9722 637.25L40.7778 638.361L42.3889 639.472L44.0833 640.528L45.0278 641.056L46 641.639L48 642.75L49 643.222L50 643.778L51 644.25L53 645.389L55 646.611L57 647.806L58 648.389L60 649.611L61 650.167L62 650.75L64 651.778L65 652.25L67 653.389L69 654.611L71 655.75L72 656.25L74 657.389L75 658L77 659.194L78 659.806L80 660.944L81 661.472L83 662.528L84 663.056L85 663.639L86 664.194L88 665.389L90 666.667L91 667.333L93 668.611L94 669.194L96 670.389L97 671.028L98 671.667L100 672.917L101 673.472L103 674.528L104 675.083L106 676.333L107 676.972L108 677.611L110 678.75L111 679.25L112 679.833L113 680.389L114 681.028L115 681.667L117 682.972L118 683.611L120 684.75L121 685.25L123 686.361L124 686.944L125 687.472L126 688L128 689.083L130 690.333L131 690.972L132 691.611L134 692.75L136 693.778L137 694.222L138 694.778L140 695.778L141 696.25L143 697.444L145 698.833L146 699.556L148 700.75L149 701.222L150 701.778L151 702.222L152 702.778L153 703.25L155 704.444L157 705.833L158 706.528L160 707.611L161 708.056L163 709.056L164 709.639L166 710.75L167 711.25L169 712.389L170 713.028L171 713.667L173 714.972L174 715.611L176 716.75L177 717.25L178 717.833L180 718.944L182 720.028L183 720.583L185 721.889L186 722.611L188 724L190 725.333L191 725.972L192 726.611L194 727.75L195 728.222L196 728.778L196.972 729.25L197.917 729.833L198.778 730.361L199.611 730.944L201.222 732L203.028 733.056L204 733.639L205 734.194L207 735.389L209 736.667L210 737.333L212 738.611L213 739.194L215 740.444L216 741.139L218 742.389L220 743.361L221 743.833L222 744.278L224 745.389L226 746.611L227 747.194L229 748.444L230 749.139L232 750.389L234 751.389L235 751.889L236 752.417L238 753.667L239 754.306L240 754.917L241 755.472L243 756.528L244 757.056L246 758.167L247 758.75L248 759.25L250 760.389L252 761.611L254 762.806L255 763.389L256 764.028L257 764.667L259 765.917L261 767L262 767.528L263 768.056L265 769.167L266 769.75L268 770.778L268.972 771.25L270.778 772.389L272.389 773.611L273.222 774.167L274.083 774.75L275.028 775.222L276 775.778L277.917 776.833L278.778 777.389L280.389 778.611L281.222 779.167L282.083 779.75L283.028 780.222L284 780.778L285 781.25L287 782.389L288 783.028L289 783.667L291 784.972L292 785.611L294 786.75L295 787.25L296 787.833L297 788.389L298 789.028L299 789.667L300 790.333L302 791.611L303 792.194L305 793.389L307 794.667L308 795.333L309 795.972L310 796.611L312 797.75L313 798.222L314 798.778L315 799.222L316 799.778L317 800.25L319 801.389L320 802.028L321 802.667L323 803.972L324 804.611L326 805.75L327 806.222L328 806.778L329 807.25L330 807.833L332 808.944L334 810L335 810.528L337 811.694L339 812.972L340 813.611L342 814.75L343 815.222L344 815.778L345 816.25L346 816.833L347 817.389L349 818.667L351 819.972L352 820.583L354 821.583L356 822.333L358 823L360 823.667L361 824L363 824.583L365 824.917L367 825L368 824.972L369 824.917L371 824.583L372 824.306L374 823.611L375 823.167L376 822.75L377 822.222L378 821.778L379 821.222L380 820.778L381 820.222L382 819.778L384 818.778L385 818.222L386 817.778L387 817.222L388 816.778L389.917 815.75L390.778 815.167L391.611 814.639L393.222 813.556L394.083 813.056L395.028 812.611L397 811.583L399 810.389L400 809.806L402 808.611L404 807.333L406 806.028L407 805.417L409 804.389L410 803.944L412 802.944L413 802.361L415 801.25L416 800.75L418 799.556L419 798.833L421 797.444L423 796.25L424 795.75L426 794.611L427 793.972L428 793.333L430 792.083L432 791L434 789.944L435 789.361L436 788.806L438 787.556L439 786.833L441 785.444L443 784.25L444 783.75L446 782.639L447 782.056L449 780.972L450 780.417L452 779.139L453 778.444L455 777.25L456 776.778L457 776.222L458 775.75L460 774.611L461 773.972L462 773.333L463 772.667L465 771.333L467 770.028L468 769.417L470 768.389L472 767.389L474 766.139L475 765.444L477 764.25L478 763.778L480 762.75L481 762.167L483 761.056L484.972 760.056L485.917 759.611L486.778 759.111L487.611 758.583L489.222 757.389L491.028 756.167L492 755.556L494 754.167L495 753.472L497 752.389L498 751.944L500 750.944L501 750.361L503 749.25L504 748.75L506 747.611L507 746.972L509 745.667L511 744.389L512 743.833L513 743.25L514 742.778L515 742.222L516 741.778L517 741.222L518 740.75L520 739.611L521 738.972L522 738.333L523 737.667L525 736.389L526 735.806L528 734.611L530 733.389L531 732.806L533 731.611L535 730.389L536.972 729.25L537.917 728.75L539.611 727.611L540.389 727L542.083 725.833L544 724.75L545 724.167L546 723.611L548 722.333L549 721.667L551 720.389L552 719.806L554 718.611L555 718L556.972 716.889L558.778 715.944L559.611 715.444L561.222 714.361L563.028 713.278L564 712.833L566 711.917L568 710.778L570 709.444L572 708.194L573 707.611L575 706.389L577 705.194L578 704.611L579 703.972L581 702.694L582 702.111L583.944 701.306L584.944 701.111L587 701L588.472 699.056L589.278 698.25L591.028 697.083L593 696.167L594 695.722L595 695.167L597 693.972L599 692.667L601 691.389L603 690.25L605 689.222L606 688.778L607 688.222L608 687.75L610 686.556L612 685.167L613 684.444L615 683.25L616 682.778L618 681.778L619 681.222L620 680.778L621.917 679.75L623.611 678.639L624.389 678.056L626.083 677L628 675.944L630 674.806L631 674.194L632 673.611L634 672.333L635 671.667L636 671.028L637 670.389L639 669.25L640 668.75L641 668.167L642 667.611L643 666.972L644 666.333L646 665.028L647 664.417L649 663.389L650 662.944L652 661.944L653 661.361L654 660.806L656 659.611L657 658.972L659 657.694L660 657.083L661 656.528L663 655.472L664 654.917L666 653.667L667 653L669 651.667L670 651.028L671 650.389L673 649.25L674 648.75L676 647.556L677 646.861L679 645.611L681 644.639L682 644.167L683 643.722L685 642.611L687 641.389L689 640.25L690 639.75L692 638.611L693 637.972L695 636.667L697 635.389L698 634.833L699 634.25L700 633.778L701 633.222L702 632.778L704 631.75L705 631.167L706 630.611L708 629.333L709 628.667L710.944 627.389L711.5 627.056L713 626L713 585L713 572L713 567L713 565L713.083 563L713.389 561L713.611 560L713.917 558L714 556L714 555L714 553L714 548L714 532L714 530L714 483L714 466L714 458L714 441L714 337L714 262L714 261L714 250L714 245L714 237L714 233L714 228L714 225L714 224L713.917 222L713.778 221L713.389 219L713.083 217L713.028 216L713 214L713 212L713 209L713 205L710.944 203.556L709.944 202.806L708 201.444L707 200.833L705 199.556L703.056 198.25L702.056 197.694L701.5 197.361L700 197M216.667 218.333L217 218.667L217.333 218.667L217 218.333L216.667 218.333M504 226L504.778 227.222L505.306 227.556L506.056 228.111L507.5 228.722L509 229L508.222 227.944L506.944 227.056L506.028 226.639L505.5 226.333L504 226M511 230L511.778 230.972L512.25 231.139L513.528 231.722L515 232L514.222 230.861L513.75 230.667L512.472 230.111L511 230M516 233L516.778 234L517.306 234.222L518.111 234.778L518.972 235.139L520.5 235.722L522 236L521.222 235L520.694 234.778L519.889 234.222L519.028 233.861L517.5 233.278L516 233M539.667 245.333L540 245.667L540.333 245.667L540 245.333L539.667 245.333M245 259L245.778 259.639L246.306 259.528L247.111 259.528L248.028 259.278L249 259L251 258.417L252 258.222L254 257.944L256 257.611L257 257.389L259 257.083L260 257.028L261.944 257L264 257L263.222 256.278L262.694 256.25L261.889 256.056L260.972 256.028L260 256L258 256.028L257 256.083L255 256.389L253 256.806L251 257.194L250 257.389L249 257.639L248.056 257.833L247.056 258.167L246.5 258.25L245 259z"/>
<path style="fill:#9eccf7; stroke:none;" d="M240 262L239.917 263.5L239.5 265.056L238.611 267L238.083 268L237.306 270L237.028 272L237 273L237 275L236.972 276L236.917 277L236.611 279L236.389 280L236.083 282L236.028 283L236 284L236 286L236 293L236 302L236 307L236 314L236 333L236 377L236 526L224 526L222 526L221 526L219 526.028L218 526.083L216 526.472L215 526.833L213 527.528L211 527.917L209 528L207 528.083L206 528.222L205 528.417L204 528.722L202 529.611L200 530.889L199.028 531.639L198.083 532.389L196.472 534.083L195.278 536L194.472 538L194.083 540L194.028 541L194 542L194 544L194 546L194.028 548L194.083 549L194.417 551L194.722 552L195.611 554L196.889 555.917L197.611 556.778L199 558.278L199.694 558.917L201.222 559.917L203.028 560.583L203.944 560.778L205.5 560.972L207 561L207 563L212 563L214 563L215 563.028L216 563.083L218 563.389L220 563.778L221 563.917L223 564L224 564L226 564L232 564L250 564L267 564L273 564L275 564L276 564L278 563.917L280 563.611L281 563.389L283 563.083L284 563.028L286 563L287 563L291 563L304 563L322 563L328 563L330 563L331 563L333 563.083L335 563.389L336 563.611L338 563.917L339 563.972L341 564L342 564L348 564L363 564L368 564L370 564L371 564L373 564.083L375 564.389L376 564.611L378 564.917L379 564.972L381 565L384 565L392 565L418 565L472 565L482 565L484 565L485 565L487 564.972L488 564.917L490 564.611L491 564.389L493 564.056L494 563.944L496 563.583L497 563.306L498 563L500 562.333L502 561.667L503.917 560.889L504.778 560.389L506.361 559.111L507.833 557.611L508.556 556.778L509.806 554.972L510.361 554L510.917 553L511.694 551L511.972 549L512 548L512 546L512 544L511.917 542L511.75 541L511.528 540L511.139 539.028L510.722 538.083L509.611 536.417L508.972 535.694L507.667 534.333L506.306 533.028L504.778 531.917L503.917 531.5L502 530.972L501 530.722L500 530.361L498 529.389L496 528.5L495 528.25L493 528.028L491 528L489 528L486 528L468 528L467 527L467 357L467 303L467 281L467 274L467 272L466.972 271L466.917 270L466.611 268L466.389 267.056L466.222 266.056L466.083 265.5L466 264L464.5 263.25L463.944 262.806L462 261.583L460 260.5L458 259.611L456 259.083L454 258.694L453 258.389L451 257.611L449 257.111L447 257L445 257L444 256.972L443 256.917L441 256.611L440 256.389L438 256.083L437 256.028L436 256L434 256L427 256L406 256L404 256L299 256L298 256L277 256L270 256L268 256L267 256.028L266 256.083L264 256.389L263 256.611L261 256.917L259 257.028L258 257.083L256 257.389L254 257.778L253 257.944L252 258.056L250 258.417L249 258.694L247 259.306L245 259.889L243.056 260.583L241.5 261.333L240 262z"/>
<path style="fill:#F1C835; stroke:none;" d="M452 258L452.778 258.722L453.25 258.75L454.056 258.944L456 259L455.222 258.278L454.75 258.25L453.944 258.056L452 258M570.667 262.333L571 262.667L571.333 262.667L571 262.333L570.667 262.333M239 264L238.278 265.444L238.25 266L238 268L238.972 267.222L239.111 266.722L239.5 266L239.639 264.778L239 264M470 268L470 270.056L469.972 272L469.917 273L469.611 275L469.222 277L469.083 278L469 280L469 281L469 283L469 289L469 307L469 361L469 431L469 523L483 523L483 368L483 316L483 299L483 293L483 291L483 290L482.917 288L482.778 287L482.389 285L482.083 283L482.028 282L482 280L482 279.056L482 276L480.528 275.472L479.167 274.528L477.611 273.139L476.778 272.389L475 271L474.083 270.333L472.444 269.111L471.667 268.639L471.25 268.333L470 268M283 293L283.778 293.722L284.306 293.75L285.111 293.944L286.028 293.972L288 294L289 294L292 294L312 294L311.222 293.278L310.694 293.25L309.889 293.056L308.972 293.028L307 293L306 293L303 293L283 293M275 294L274 295L274 299L274.806 298.222L274.972 297.75L275.556 296.472L276 295L280 295L279.222 294.278L278.694 294.25L277.944 294.056L277.028 294.028L275 294M277 296L276 297L276 307L276 311L276 331L276 342L276 346L276 348L276.083 350L276.389 352L276.611 353L276.917 355L277 357L277 359L277 363L277 375L277 412L277 523L278 524L289 524L289 493L289 483L289 480L289 478L288.917 476L288.611 474L288.389 473L288.083 471L288 469L288 467L288 463L288 450L288 411L288 401L288 398L288 396L287.917 394L287.611 392L287.389 391L287.083 389L287.028 388L287 386L287 385L287 380L287 365L306 365L312 365L314 365L315 365L317 365.083L318 365.222L320 365.611L322 365.917L323 365.972L324 366L326 366L331 366L333 366L334 366L336 366.083L338 366.389L339 366.611L340 366.806L342 367.194L343 367.389L344 367.611L346 367.917L347 367.972L349 368L351 367.972L352 367.889L354 367.278L355.917 365.889L356.778 365L357.556 364.111L358.333 363.306L358.75 362.778L360 362L360 356L360 354L359.972 353L359.889 352L359.389 350L358.611 348L358.111 346L358.028 345L358 344L358 342L358 337L358 336L357.972 334L357.917 333L357.611 331L357.389 330L357.083 328L357.028 327L357 325L357 324L357 320L357 316L357 306L358 305L384 305L392 305L394 305L396 305.028L397 305.083L399 305.389L400 305.611L402 305.917L404 306.028L405 306.083L407 306.389L408 306.611L410 306.917L411 306.972L413 307.028L414 307.083L416 307.389L417 307.611L419 307.917L420 307.972L422 308L422.944 308L426 308L426 296L421 296L277 296M273 300L273 304L273 309L273.722 308.222L273.75 307.694L273.944 306.889L273.972 305.972L274 304L273.944 302.111L273.75 301.306L273.722 300.778L273 300M347 306L347 322L347 327L347 328L346.972 330L346.917 331L346.611 333L346.389 334L346.083 336L346.028 337L346 339L346 343L346 355L328 355L322 355L320 355L319 355.028L318 355.083L316 355.417L314 356L312 356.583L310 356.917L309 356.972L307 357L305 357L302 357L287 357L287 305L323 305L335 305L338 305L339 305L341 305.028L342 305.083L343.944 305.389L345.5 305.75L347 306M290 309L290 352L290.722 351.222L290.75 350.694L290.944 349.889L290.972 348.972L291 347L291 345L291 342L291 320L291 316L291 314L290.972 312.028L290.944 311.111L290.75 310.306L290.722 309.778L290 309z"/>
<path style="fill:#9eccf7; stroke:none;" d="M291 309L291 352L343 352L343 309L291 309z"/>
<path style="fill:#F1C835; stroke:none;" d="M343 309L343 351L343.722 350.222L343.75 349.694L343.944 348.889L343.972 347.972L344 346L344 344L344 341L344 319L344 316L344 314L343.972 312.028L343.944 311.111L343.75 310.306L343.722 309.778L343 309z"/>
<path style="fill:#9eccf7; stroke:none;" d="M363 309L363 352L415 352L415 334L415 328L415 326L415.028 324L415.083 323L415.389 321L415.611 320L415.917 318L415.972 317L416 316L416 314L416 309L363 309z"/>
<path style="fill:#F1C835; stroke:none;" d="M272 310L272 336L272.722 335.222L272.75 334.694L272.944 333.889L272.972 332.972L273 332L273 331L273 329L273 317L273 315L273 314L272.972 313.028L272.944 312.111L272.75 311.306L272.722 310.778L272 310M421 315L420.75 316.5L420.611 317.056L420.194 319L420 320L419.528 322L418.833 324L418.472 325L418.056 327L417.778 329L417.611 330L417.389 331L417.083 333L417.028 334L417 336L417 338L417 341L417 354L416 355L373 355L373 365L380 365L382 365L384 365.028L385 365.083L387 365.389L388 365.611L390 365.917L391 365.972L393 366L395 366L401 366L402 366L404 366.028L405 366.083L407 366.389L408 366.611L410 366.917L411 366.972L413 367L414 367L416 367L417 367L426 367L426 345L426 338L426 336L425.972 334L425.917 333L425.611 331L425.389 330L425.083 328L424.917 326L424.778 325L424.389 323L424.083 321L423.972 319L423.944 318.056L423.75 317.056L423.722 316.5L423 315L421 315M415 320L415 336L415.722 335.222L415.75 334.694L415.944 333.889L415.972 332.972L416 331L416 330L416 328L416 326L416 325L415.972 323.028L415.944 322.111L415.75 321.306L415.722 320.778L415 320M293 369L293.778 369.722L294.306 369.75L295.111 369.944L296.028 369.972L297 370L299 370L300 370L302 370L308 370L343 370L343 412L291 412L291.778 412.722L292.306 412.75L293.111 412.944L294.028 412.972L295 413L297 413L298 413L300 413L306 413L343 413L344 412L344 370L343 369L293 369M363 371L365.056 370.417L366.056 370.222L367 370.083L369 370L370 370L372 370L378 370L400 370L399.222 369.278L398.694 369.25L397.889 369.056L396.972 369.028L395 369L394 369L391 369L372 369L369 369L367 369L365.111 369.111L364.333 369.278L363.361 369.861L363 371z"/>
<path style="fill:#9eccf7; stroke:none;" d="M291 370L291 372.056L290.972 374L290.917 375L290.611 377L290.389 378L290.083 380L290.028 381L290 383L290 386L290 395L290 402L290 404L290.028 405L290.083 406L290.389 408L290.611 408.944L290.778 409.944L290.917 410.5L291 412L343 412L343 370L291 370M364 370L363 371L363 412L414 412L414 407L414 405L414.028 404L414.083 403L414.389 401L414.611 400L414.917 398L414.972 397L415 395L415 394L415 388L415 386L415.028 385L415.083 384L415.389 382L415.611 381L415.917 379L415.972 378L416 377L416 375L416 370L364 370z"/>
<path style="fill:#F1C835; stroke:none;" d="M424 378L422.944 379.5L422.056 381.056L421.306 382.944L421.111 383.944L421 386L419 386L419 392L417 392L417 416L402 416L399 416L397 416L395 416.028L394 416.083L392 416.389L390 416.778L389 416.917L387 417.028L386 417.083L384 417.389L383 417.611L381 417.917L379 418.028L378 418.083L376 418.389L375 418.611L373 418.944L372 419.056L370.111 419.5L369.333 419.889L368.361 420.778L368 422L369.5 422L371.056 422.083L373 422.389L374 422.639L375 422.861L377 423.361L378 423.611L380 423.917L381 423.972L383 424.028L384 424.083L385 424.222L387 424.611L388 424.806L390 425.194L391 425.389L392 425.611L394 425.917L395 425.972L396 426L398 426L404 426L405 426L407 426.028L408 426.083L410 426.389L411 426.611L413 426.917L414 426.972L416 427L418 427L426 427L426 405L426 398L426 396L425.972 395L425.917 394L425.611 392L425.389 391L425.083 389L425.028 388L425 386L425 384L425 383L424.972 381.028L424.944 380.111L424.75 379.306L424.722 378.778L424 378M346 383L346 388L346 390L345.972 391L345.917 392L345.611 394L345.389 395L345.083 397L345.028 398L345 400L345 404L345 416L301 416L301 424L302.5 424.25L304.056 424.611L306 424.917L307 424.972L309 425L311 425L319 425L322 425L324 425.028L325 425.083L327 425.389L329 425.778L330 425.917L332 426.028L333 426.083L335 426.389L336 426.611L338 426.917L339 426.972L341 427L342 427L345 427L358 427L358 384L357 383L346 383M414 400L414 412L363 412L363.778 412.722L364.306 412.75L365.111 412.944L366.028 412.972L367 413L369 413L370 413L372 413L378 413L415 413L415 408L415 406L415 404L414.972 403.028L414.944 402.111L414.75 401.306L414.722 400.778L414 400z"/>
<path style="fill:#9eccf7; stroke:none;" d="M292 431L291 432L291 434.056L290.972 436L290.917 437L290.611 439L290.389 440L290.083 442L290.028 443L290 445L290 447L290 453L290 472L343 472L343 430L313 430L304 430L302 430L301 430L299 430.028L298 430.083L296 430.389L295.056 430.611L294.056 430.778L293.5 430.917L292 431z"/>
<path style="fill:#F1C835; stroke:none;" d="M343 430L343 471L343.722 470.222L343.75 469.694L343.944 468.889L343.972 467.972L344 466L344 464L344 461L344 440L344 437L344 435L343.972 433.028L343.944 432.111L343.75 431.306L343.722 430.778L343 430z"/>
<path style="fill:#9eccf7; stroke:none;" d="M363 430L363 472L415 472L415 454L415 448L415 446L415.028 444L415.083 443L415.389 441L415.611 440L415.917 438L415.972 437L416 435L416 433.056L416 430L363 430z"/>
<path style="fill:#F1C835; stroke:none;" d="M423 438L422.472 439.5L422.111 440.056L421.056 442L420.083 444L419.417 446L419 448L418.611 450L418.194 452L418 453L417.611 455L417.389 456L417.083 458L417.028 459L417 461L417 463L417 472L416 473L405 473L402 473L401 473L399 473.028L398 473.083L396 473.389L395 473.611L393 473.917L392 473.972L391 474L389 474L387 474.028L386 474.083L384 474.389L383 474.611L381 474.917L380 474.972L378 475L376 475L369 475L369.111 476.417L369.639 477.639L370.111 478.306L370.694 479L372 480.417L372.694 481.222L374.111 482.972L374.778 483.944L375.25 484.5L376 486L426 486L426 463L426 456L426 453L426 452L425.917 450L425.778 449L425.389 447L425.083 445L425.028 444L425 442L425 441.056L425 438L423 438M346 442L345.972 444.056L345.917 445.056L345.611 447L345.389 448L345.083 450L345.028 451L345 453L345 454L345 459L345 473L330 473L327 473L325 473L323 473.028L322 473.083L320 473.389L319 473.611L317 473.917L316 473.972L314 474L313 474L310 474L309 474L307 474.028L306 474.083L304 474.389L303 474.611L301.056 474.917L300.056 474.972L298 475L297.278 476.139L296.75 476.333L295 477L295.361 478.389L296.333 479.444L297.111 480L299 481.278L300 482.028L302 483.5L304 484.5L305 484.75L305.944 484.917L307.5 485L309 485L309 487L327 487L333 487L335 487L337 486.972L338 486.917L340 486.611L341 486.389L343 486.083L344 486.028L346 486L347 486L349 486L358 486L358 443L357 442L346 442M467 504L467 527L468 528L490 528L489.222 527.278L488.694 527.25L487.889 527.056L486.972 527.028L485 527L484 527L482 527L468 527L468 512L468 510L468 509L467.972 507.028L467.944 506.111L467.75 505.306L467.722 504.778L467 504M224 525L224.778 525.722L225.306 525.75L226.111 525.944L227.028 525.972L229 526L231 526L236 526L235.222 525.278L234.694 525.25L233.889 525.056L232.972 525.028L231 525L229 525L224 525M274 526L274.778 526.722L275.306 526.75L276.111 526.944L277.028 526.972L278 527L279 527L281 527L292 527L336 527L335.222 526.278L334.694 526.25L333.889 526.056L332.972 526.028L332 526L331 526L329 526L318 526L274 526M208 527L208.778 527.722L209.306 527.75L210.111 527.944L210.972 527.972L211.944 528L214 528L213.222 527.278L212.694 527.25L211.889 527.056L211.028 527.028L210.056 527L208 527M352 527L352.778 527.722L353.306 527.75L354.111 527.944L355.028 527.972L357 528L358 528L360 528L376 528L375.222 527.278L374.694 527.25L373.889 527.056L372.972 527.028L371 527L370 527L368 527L352 527M498 529L498.778 530.139L499.25 530.333L500.528 530.889L502 531L501.222 529.861L500.75 529.667L499.472 529.111L498 529M520 538L519.917 539.5L519.528 541.056L519.167 542L518.389 544L517.583 546L516.611 548L516.083 549L515.306 550.944L515.028 552.5L515 554L513 554L512.917 555.5L512.528 557.056L511.722 559L510.528 561L508.917 562.917L507 564.528L506 565.139L505 565.722L503 566.611L501 567.389L500 567.806L498 568.528L497 568.75L496 568.917L494 569L493 569L492 569L490 569L478 569L441 569L396 569L381 569L376 569L374 569L373 569L371 568.917L370 568.778L368 568.389L366 568.083L365 568.028L363 568L361 568L353 568L350 568L349 568L347 567.917L345 567.611L344 567.389L342 567.083L340 567L338 567L334 567L321 567L282 567L244 567L231 567L227 567L225 567L223 567.083L222 567.222L220 567.611L218 567.917L217 567.972L215 568L213 568L205 568L205.083 569.5L205.222 570.056L205.611 572L205.806 573L206.194 575L206.389 575.944L206.75 577.5L207 579L209.056 579L210.056 579.028L211 579.083L213 579.389L214 579.611L216 579.917L217 579.972L219 580.083L220 580.222L222 580.611L224 580.917L225 580.972L227 581L231 581L243 581L279 581L314 581L325 581L329 581L331 581L333 581.083L335 581.389L336 581.611L338 581.917L340 582L341 582L343 582L348 582L365 582L371 582L373 582L375 582.028L377 582.306L378 582.611L380 583.389L381 583.694L383 583.972L385 584L389 584L401 584L432 584L442 584L445 584L447 584L449 584.083L451 584.389L452 584.611L454 584.917L455 584.972L457 585L459 585L465 585L468 585L470 585L472 584.972L473 584.917L475 584.611L477 584.222L478 584.083L480 583.917L482 583.611L483 583.389L485 583.056L486 582.944L488 582.611L490 582.194L492 581.806L493 581.583L494 581.306L496 580.611L497 580.167L498 579.75L499 579.222L500 578.778L501 578.222L502 577.778L503 577.222L504 576.75L506 575.611L507 574.972L508 574.333L510 573.083L512 572L514 570.917L516 569.694L517 569.083L519 568.056L520 567.611L522 566.528L524 565.222L524.972 564.583L526.778 563.417L528.333 562.194L528.75 561.75L530 561L529.972 558.944L529.694 557L529.389 556L528.528 554L528.056 553L527.611 552L526.611 550L526.083 549L525.194 547L524.417 545L523.583 543L522.778 541.028L522.361 540.111L521.389 538.778L520 538M576 539L576.778 539.694L577.25 539.694L578.528 539.694L580 539L579.222 538.361L578.75 538.472L577.944 538.472L576 539M570 543L570.778 543.639L571.306 543.5L572.056 543.5L573.5 542.972L575 542L574.222 541.361L573.694 541.5L572.944 541.5L571.5 542.028L570 543M144.667 548.333L144.667 548.667L145.333 548.667L145.333 548.333L144.667 548.333M506 558L506 560L507 560L508 558L506 558M166.667 561.333L166.667 561.667L167.333 561.667L167.333 561.333L166.667 561.333M502.667 561.333L502.667 561.667L503.333 561.667L503.333 561.333L502.667 561.333M280 563L280.778 563.722L281.306 563.75L282.111 563.944L283.028 563.972L284 564L285 564L287 564L297 564L336 564L335.222 563.278L334.694 563.25L333.889 563.056L332.972 563.028L332 563L331 563L329 563L319 563L280 563M368 564L368.778 564.722L369.306 564.75L370.111 564.944L371.028 564.972L372.944 565L373.944 565L376 565L375.222 564.278L374.694 564.25L373.889 564.056L372.972 564.028L371.056 564L370.056 564L368 564M448 565L448.778 565.722L449.306 565.75L450.111 565.944L451.028 565.972L453 566L455 566L458 566L480 566L479.222 565.278L478.694 565.25L477.889 565.056L476.972 565.028L475 565L473 565L470 565L448 565M190.667 575.333L191 575.667L191.333 575.667L191 575.333L190.667 575.333M498 585L498.778 585.694L499.25 585.694L500.528 585.694L502 585L501.222 584.361L500.75 584.472L499.944 584.472L498 585M471 601L471.778 601.694L472.25 601.694L473.528 601.694L475 601L474.222 600.361L473.75 600.472L472.944 600.472L471 601M449 614L449.778 614.694L450.25 614.694L451.528 614.694L453 614L452.222 613.361L451.75 613.472L450.944 613.472L449 614M440 619L440.778 619.694L442.111 619.639L444 618.917L445.944 617.889L446.5 617.528L448 617L447.222 616.306L446.694 616.333L444.972 616.528L444 616.917L442.056 617.944L441.5 618.306L440 619M269 621L269.722 622.139L270.25 622.333L272 623L271 621L269 621M40.6667 626.333L41 626.667L41.3333 626.667L41.3333 626.333L40.6667 626.333M294.667 636.333L295 636.667L295.333 636.667L295 636.333L294.667 636.333M62.6667 639.333L63 639.667L63.3333 639.667L63 639.333L62.6667 639.333M402.667 641.333L403 641.667L403.333 641.667L403 641.333L402.667 641.333M72 645L72.7778 645.972L73.25 646.139L74.5278 646.722L76 647L75.2222 646.028L74.75 645.861L73.4722 645.278L72 645M317 649L317.722 650.139L318.25 650.333L320 651L319 649L317 649M378 656L379.75 655.333L380.278 655.139L381 654L379.25 654.667L378.722 654.861L378 656M358 666L356 668L356 669L357.472 668.639L358.75 667.722L359.222 667.389L360 666L358 666M110.667 667.333L110.667 667.667L111.333 667.667L111 667.333L110.667 667.333M542 698L542 700L543 700L544 698L542 698M168.667 701.333L169 701.667L169.333 701.667L169 701.333L168.667 701.333M486.667 731.333L486.667 731.667L487.333 731.667L487.333 731.333L486.667 731.333M224 734L224.778 734.972L225.25 735.139L226.528 735.722L228 736L227.222 734.861L226.75 734.667L225.472 734.111L224 734M414 773L414 775L415 775L416 773L414 773M294 775L294.778 775.972L295.25 776.139L296.528 776.722L298 777L297.222 776.028L296.75 775.861L295.472 775.278L294 775M318.667 789.333L318.667 789.667L319.333 789.667L319.333 789.333L318.667 789.333M326.667 794.333L326.667 794.667L327.333 794.667L327.333 794.333L326.667 794.333M336.667 800.333L336.667 800.667L337.333 800.667L337 800.333L336.667 800.333z"/>
</svg>
